<svg width="24" height="24" viewBox="0 0 24 24" fill="none" xmlns="http://www.w3.org/2000/svg">
<path fill-rule="evenodd" clip-rule="evenodd" d="M12 24C18.6274 24 24 18.6274 24 12C24 5.37258 18.6274 0 12 0C5.37258 0 0 5.37258 0 12C0 18.6274 5.37258 24 12 24Z" fill="url(#paint0_radial)"/>
<path fill-rule="evenodd" clip-rule="evenodd" d="M2.85693 12C2.85693 6.96607 6.96515 2.85714 11.9998 2.85714C17.0337 2.85714 21.1426 6.96536 21.1426 12C21.1426 17.0339 17.0344 21.1429 11.9998 21.1429C6.96586 21.1429 2.85693 17.0346 2.85693 12ZM3.92836 12C3.92836 16.4506 7.54918 20.0714 11.9998 20.0714C16.4504 20.0714 20.0712 16.4506 20.0712 12C20.0712 7.54939 16.4504 3.92857 11.9998 3.92857C7.54918 3.92857 3.92836 7.54939 3.92836 12Z" fill="#F8B013"/>
<path fill-rule="evenodd" clip-rule="evenodd" d="M4.88867 12C4.88867 8.09498 8.09364 4.88889 11.9998 4.88889C15.9048 4.88889 19.1109 8.09386 19.1109 12C19.1109 15.905 15.9059 19.1111 11.9998 19.1111C8.09477 19.1111 4.88867 15.9061 4.88867 12ZM5.97711 12C5.97711 15.3209 8.67886 18.0227 11.9998 18.0227C15.3207 18.0227 18.0225 15.3209 18.0225 12C18.0225 8.67908 15.3207 5.97732 11.9998 5.97732C8.67886 5.97732 5.97711 8.67908 5.97711 12Z" fill="#F8B013"/>
<defs>
<radialGradient id="paint0_radial" cx="0" cy="0" r="1" gradientUnits="userSpaceOnUse" gradientTransform="translate(12 12) rotate(-90) scale(16.4708)">
<stop stop-color="#FFCF00"/>
<stop offset="1" stop-color="#F7AE15"/>
</radialGradient>
</defs>
</svg>
